<svg width="128" height="128" viewBox="0 0 128 128" fill="none" xmlns="http://www.w3.org/2000/svg">
<rect width="128" height="128" fill="url(#paint0_linear)"/>
<path fill-rule="evenodd" clip-rule="evenodd" d="M59.2908 18.6347C50.4965 19.5671 42.1631 23.0368 35.3056 28.621C28.4481 34.2052 23.3624 41.6631 20.668 50.0862C17.9735 58.5093 17.7866 67.5342 20.1299 76.0617C22.4732 84.5891 27.2457 92.2512 33.8661 98.1146C34.1524 98.3476 34.4818 98.5219 34.8355 98.6276C35.1892 98.7333 35.5603 98.7683 35.9275 98.7305C36.2947 98.6928 36.6509 98.5831 36.9757 98.4077C37.3006 98.2324 37.5877 97.9947 37.8207 97.7084C38.0537 97.422 38.228 97.0926 38.3337 96.7389C38.4393 96.3852 38.4744 96.0141 38.4366 95.6469C38.3989 95.2797 38.2892 94.9235 38.1138 94.5987C37.9384 94.2738 37.7008 93.9867 37.4145 93.7537C32.3841 89.2758 28.5687 83.5977 26.3235 77.2483C24.0784 70.8988 23.4765 64.0845 24.5738 57.4398C25.6712 50.7951 28.4321 44.5361 32.5996 39.2457C36.767 33.9552 42.2054 29.8054 48.4084 27.1826C54.6114 24.5598 61.3772 23.5493 68.0759 24.2452C74.7746 24.9411 81.1882 27.3208 86.7196 31.1627C92.2509 35.0046 96.7202 40.1837 99.7112 46.2179C102.702 52.252 104.118 58.9448 103.826 65.6732C103.4 73.5208 100.704 81.0757 96.0645 87.4194C91.4253 93.763 85.0428 98.6222 77.6933 101.406C70.5757 104.196 62.7795 104.763 55.3333 103.031L82.8169 51.1424C83.2829 50.335 83.5456 49.4264 83.5825 48.4949C83.5964 48.1102 83.532 47.7266 83.3933 47.3675C83.2546 47.0084 83.0445 46.6811 82.7755 46.4057C82.4598 46.1192 82.0895 45.8993 81.6868 45.7592C81.2841 45.6191 80.8573 45.5617 80.432 45.5904H45.8489C44.9979 45.5319 44.1577 45.8087 43.5081 46.3614C43.2263 46.653 43.0086 47.0004 42.8691 47.3811C42.7297 47.7619 42.6715 48.1677 42.6984 48.5723C42.6754 48.9653 42.7356 49.3587 42.8751 49.7269C43.0147 50.095 43.2304 50.4295 43.5081 50.7085C44.1587 51.2593 44.9984 51.5348 45.8489 51.4768H75.2227L48.8086 100.972C46.5397 104.921 47.8828 106.9 52.766 108.218C59.2208 109.844 65.9531 110.036 72.4903 108.782C79.0274 107.529 85.2108 104.859 90.6061 100.961C96.0015 97.0624 100.478 92.0302 103.721 86.2175C106.964 80.4047 108.896 73.9524 109.379 67.3138C109.863 60.6751 108.888 54.011 106.521 47.7895C104.155 41.568 100.455 35.9401 95.682 31.3009C90.9087 26.6617 85.1776 23.1237 78.8913 20.9356C72.605 18.7474 65.9158 17.962 59.2935 18.6347H59.2908Z" fill="white"/>
<defs>
<linearGradient id="paint0_linear" x1="128" y1="128" x2="-15.7384" y2="106.823" gradientUnits="userSpaceOnUse">
<stop stop-color="#356DDC"/>
<stop offset="1" stop-color="#071E86"/>
</linearGradient>
</defs>
</svg>
